<?xml version="1.0" encoding="UTF-8"?>
<svg id="Capa_1" xmlns="http://www.w3.org/2000/svg" version="1.1" viewBox="0 0 1024 1024">
  <!-- Generator: Adobe Illustrator 29.0.0, SVG Export Plug-In . SVG Version: 2.1.0 Build 186)  -->
  <defs>
    <style>
      .st0 {
        fill: #f4b248;
      }
    </style>
  </defs>
  <path class="st0" d="M510.6,106.1c5-.3,7.6,0,12.2,2.5,11.4,6.4,22.9,13.1,34.2,19.5l77.3,43.6,66.9,37.1c5.6,3.1,11.2,6.1,16.9,9,9.8,5,12.2,5,18.4,14.3,49.6,74.7,102.2,147.8,173,204.2,5.7,4.6,6,8.8,1.8,14.4-5.9,9.5-14.6,17.4-21.3,26-12.4,15.8-23.9,4.1-37.5-6.3.2,79.2-2.3,158.9-1.5,238.2.4,36.3,1.8,72.2,3,108.4,8.8-.2,29.1.9,36.7,5.2,7.5,4.2,2.2,10.9-6.1,11.5-34.1,2.4-68.1,1.9-102.2,1.6-33.2-.3-66.4-.1-99.6-.2-1.7,6-4.1,9.8-10.9,10-8.1.2-16.2,0-24.3,0h-45.9c-29.8.1-59.6,0-89.4-.3-10.1-.2-20.9,0-31-.6-28.7-.2-57.1-1.1-85.8-1.2-12.2.2-24.4,2.1-36.6,2.2-8.4,0-12-1.3-13.2-10.1h-134.4c-28.4,0-56.8,0-85.2-1.8-5.1-.3-16.1,0-18.7-4.8-.9-10.6,22.1-9.9,29-10.4,14.8-1.1,29.6-1,44.4-1.7.1-23-1.3-47.4-1.9-70.5l-4.2-156.1c-1.4-39.7-3.7-81-3.9-120.7-4.7,4.2-22.1,18.5-28.8,16.6-7.8-2.2-36-32.7-33-41.5,1-2.9,17.6-17.4,21.9-21.4,9.3-8.6,18.4-17.5,27.2-26.6,26.2-26.9,50.9-55.3,74-84.9,11.3-14.4,22.4-29,33.2-43.8,9.3-12.8,18.5-26,27.8-38.7,4.1-5.6,17.6-11.4,24.4-15.2l54.3-30.2,84.1-47.4,29.6-16.6c7.7-4.4,16.9-10,24.9-13.3ZM191.5,449.9c.4,14.8.6,29.6.6,44.5,0,7.5.1,15.8-.1,23.2-.3,8-4.8,11.9-4.7,21.2.1,9.6,6.5,14.5,6.7,22.4.2,7.2,0,14.9.2,22.2l2.1,77.9,3,98.2c.6,18.3,1.8,38.5,1.9,56.7,9.4,0,20.4.3,29.6-.1-.9-7.8-.8-17.4-1.2-25.5l-2.8-62.2-3.8-85.8c-.9-18.9-1.9-37.9-1.9-56.8,0-2.5.3-8.7,1.9-10.5,2.6-3,9.4-4,12.2-.6,3.3,3.9,2.6,10.8,2.9,15.7.1,8.8,0,17.4,0,26.2-.1,8.7.8,17.2,1,25.8,4-.6,8-1.2,12-1.6,0-19.3,1.8-32,16.6-45.1-.7-8.7-2.6-25.9-4.9-34.3-19.5,4-80.8,0-64.5-33.6,7.5-15.4,54.6-18.7,67.9-13.6-.3-20.3-1.3-42.1,13.2-58.3,5.1-5.7,10-6.7,14.6-.1,6.9,9.9,9.2,22.3,14.1,32.8,12.7-4.1,34.3-8.5,47.8-8.5,1.6-7.9,2.5-15.4,3-23.8.5-8.9.9-21,13.7-17.6,15.4,5.1,23.1,25.7,27.4,40.1,6-2.9,11.4-5.7,18.1-8.3,24.4-9.4,59.4-7.2,48.3,28.9-4.9,15.9-29.6,27.9-46.5,24.7,5.5,14.4,10.3,32.6,10.4,48,18.4,15.6,21.6,31.8,7,52-9.4,11.5-18,17.2-31.1,23.9,18.2-1.2,36.6-.3,54.8-.9,3.2,0,6.5-.1,9.7-.1-9.2-25.3-11.8-42.9-11.5-69.3-4.1-.6-21.6-3.1-11.1-12.2,2.2-2,10.3-2.5,13.6-2.6,7-20,14.2-31.7,34.1-41.3,2-.9,4-1.9,6-2.8,3.2-7.8,2.7-23.2,10.5-27.6,4.3-2.4,11.3.2,15.9,1.7,2.6-3.5,4.6-6.8,9.3-7.6,2-.3,4,.1,5.7,1.4,3.6,2.7,4,6.3,5.4,10.4,2.7-.9,6.6-2.2,9.4-2.6,19-2.7,13,23.3,10.8,33.3,9.3,13,13.3,19.3,16.8,35.6.8,3.5,1.9,10.4,2.8,13.6,5.8,0,11.5.5,17.3.8,3.2.2,7.5,0,10.5.5,2-2.6,2.6-3.6,4.2-6.5-15-23.2-11.6-44.3,4.6-65.2,4-5.2,5.7-13.7,15.3-11.2,15.3,6.6,25.7,24.9,33.5,38.8,16.6-4.1,50.4,1,66.1,8.3,18.7-13.8,47.4-24,70.8-19.1,3.6,3.1,5.6,6.1,5.6,11.2,0,20.4-11.5,40.3-24.9,54.5l-.7.8c8.8,22.8,10.5,35.9,10.4,59.8,1.6.7,4.3,1.8,5.7,2.6,3.2,5.3,2.3,8.7-3.1,11.9-.9.5-1.8,1-2.7,1.5v90.7c0,13.8,0,27.1-.8,40.9-.4,6.3,0,12.4-.7,18.9,11.4,0,23.4-.2,34.7,0-.2-21.4-1.9-43.4-2.1-64.7v-296.4c-41.3-34.7-71-68.8-101.4-113.6l-40.5-60.2c-2.2-3.2-14.5-22.1-16.5-23.1-11.5-6.4-26.4-13.1-38.3-19.1-22.7-11.4-45.1-23.3-67.2-35.7-5.5-3.1-57-33.4-57.4-33.4-40.1,22.4-78.5,47.4-119.6,68.3-6.7,3.4-46.5,21.8-48.6,24.1-24.1,25.8-57.6,74.2-77.6,101.5-22.1,30.6-46.6,59.3-73.4,86ZM639.4,514.8c-11.9,13.5-18.1,32.2-4.8,47.4,1.9,2.1,3.6,4.5,4.8,7l-.2.6c-2.7,6.2-6.7,12.3-9.6,18.6-7.9,17.4-15.2,40.5-11.9,59.6h30.1c7.3,0,15.2-.3,22.3.8-9.6-5.6-19.4-11.3-22.4-22.9-3-11.8,3.3-21,12.1-27.9-5.1-4.2-21-14.9-6.8-19.8,3.7-1.3,16.9,10.6,20.3,13.1,19.8-4.6,34.7-1.8,50.2,11.9,6.9-4.9,12.6-14.5,21.8-14.1,4.1.2,4,6.2,2.7,9-2.5,5.3-11.7,12.8-17.2,14.6,6.3,23.6-8.9,33.3-28.5,39.3,16.4.1,33.3.3,49.7,0,8.6-.2,19.4-1.9,27.9-3.1,7.4-19.8.6-43-7.1-61.6,3-4.6,7-8.8,10.5-13.1,9.2-11.3,15.8-23.6,18-38.1-17.8,1.8-31.1,4.3-47.2,13.2-5.7,3.2-7.5,6.2-14.1,9-20-6.3-36.2-10.3-57-9.8-8.6.2-19.2,3.9-22.5-5.2-2.8-6-13.2-28.7-21-28.3ZM590.8,594.1c-3.5,3-9.4,7.2-13.8,2.4-4.3-4.8-2.2-14.5-3.2-20.5-2.1-24.8-12.6-45.2-39.3-48.5-1.9-.2-6.3-.5-8.2-.3-36.8,2.7-55.7,25.6-53.1,62.5,1.4,20.4,7.4,38.6,14.1,57.8l6.3-.6c2-16.2,9.2-6,15.2.4,3.8.6,5.1.7,9,.6,4.6-2.9,13.7-13.1,19.8-13.1,2.3,0,1.4,5.8.3,6.8-1.3,2-3.2,4.3-4.9,6.4,16.7,0,14.2-2.9,27.5-10.6,2.6-1.2,9.7-4.8,11.1-1,1.6,4.3-5.7,9.6-8.2,11.6,4.8,0,10.3.1,15,0,2.1-2,6.7-7.4,9.2-7.8.8-.1.9.3,1.6.9,1,2.3.7,4.3.5,6.9h11.7c.4-7,.2-14,1.1-20.8-8.5-7.2-5.9-10.2,2.3-15.1,1.6-6.4,3.3-12.7,5.3-19-7.9-.4-11.7,0-19.6,1ZM416.9,508.1c9.9-.4,23.7-3.5,30.4-11.2,8.4-9.8-.4-11.2-8.4-10.7-10.8,1.7-23.6,7.1-33.4,12.1,1.9,3.1,4.1,6.9,5.6,10.2l5.8-.4ZM262.7,543.1c1.1-4.9,1.4-6.8,1.3-12-5.9-1.2-17.9-1.7-23.8-.9-5.8.7-17.1,1.7-21.3,6l-.3,1.2c2.5,4.3,18.5,5.5,23.6,5.6h20.6ZM332.8,500.2c-17,2.9-39.7,11.2-50.5,25.7-5.4,7.3-6.4,14.1-8,22.7,2.3,3.8,3.1,8.5,4.1,12.8,1.7,7.4,3.3,14.8,4.7,22.2.7,3.6,2.4,17.7,5.4,19.2,2.9-1.6,7.8-8,10.9-10.5,9.6-7.8,19.6-13.4,30.9-18.3,21.3-8.7,44.3-12.6,67.3-11.2,4.9.3,10,.5,14.8,1.6-3.1-18.5-5.2-25.7-13.8-42.7-24.4,5-53.1,6.2-63.9-21.4-1.2-.2-.7-.2-1.9,0ZM519.3,505.6c-2.8,1.8-4.8,4.2-4.3,7.7,1.4,2.1,1.7,1.8,4.2,1.5,2.7-.3,2.6.2,4.4-1.3,1.8-4,.1-7.1-4.2-7.9ZM537.9,514.8h1.6c3.1-3.6,0-7.6-4-9-1.7,1.1-3.6,2.5-3.9,4.6-.6,3.9,3.8,4,6.4,4.3ZM555.8,509.1c-8.3,1.2-10.3,8.3-.8,10.8l2.1.8c3.3-1.7,2-8.2.5-10.9-1.2-.7-.7-.7-1.8-.8ZM278,508.8c1.5-1.7,3.1-3.4,4.4-5.2,3.2-2.9,6.3-5.9,9.9-8.4-1.3-4.6-4.4-15-8.1-18.4-6.9,12.2-6.3,18.1-6.2,32ZM374,486.8c2.6-.5,4.6-.8,7.4-1.1,4.1-4.4-2.3-18.8-5.9-22.8-2.5,6.6-1.6,16.7-1.5,23.9ZM697.9,641.2c35.1-3.4,24.7-44.2-17.7-40.1-7.6,1.6-15.2,3.8-19.8,10.6-6.3,9.3.9,19.8,9.3,24.6,8.4,4.7,18.7,6.4,28.2,4.9ZM712,669.1h-35.9c-.2,13.8.8,26.6.9,40.1-.1,8.5.6,16,.9,24.4.6,27.6,2,55.1,4.2,82.6h72.3c10,0,26.5.6,35.9,0,.6-9.6.9-19.2.7-28.8-.4-27.2-3.1-54.6-3-81.9,0-4-.4-35.1-1-36.6-21.6.5-43.4-.1-65,.2.5,27.4.2,54.7-.9,82-.4,9.6-.4,24.1-3.5,32.7-2.6-11.8-3.3-26-4.1-38.1-1.7-25.7-1.5-51-1.5-76.7ZM346.4,648c25-1.3,53.7-10.2,71.1-29,4.6-4.9,9.9-13.1,9.2-19.9-1.9-19.9-30-21.9-44.8-21.3-26.2,1-55.1,7.2-74.4,26.3-9.3,9.1-11.2,24.3-.8,33.4,10.6,9.3,26.1,10.9,39.6,10.5ZM516,668c-.4,8.9-3.3,47.3-6.8,53.3l-.9.5-1-.4c-2.1-5.4-3.3-45.5-3.3-53.9-12.4-1.1-28.7-.4-41.5-.7-35.5-.9-70.9-1.2-106.4-.7-.2,15.6.9,31.6,1.9,47.2,2.4,36.8,3.7,73.8,6.3,110.6l89.8.2c16,0,35.1.5,50.9-.2.2-8.7.6-18,1.2-26.7.6-9.4.7-22.3,2.1-31.5l-.5.2c-8.3,3.6-21.8,11.4-30.3,15.9-13.7,7.2-27.6,14.2-41.4,21.1-8.6,4.4-16.7,8.6-25.5,12.2-15.4,6.2-19.1-8.6-9.4-14.4,27.2-16.4,58.3-32.1,86.9-45.6-17.7-8.5-107.9-55.5-112.5-68.1-.7-1.8-.9-3.7,0-5.5,1.2-2.6,3.7-3.9,6.2-4.9,4.6.2,7.3.6,11.6,2.5,12.7,5.7,25.2,13.4,37.2,20.4,17.1,9.9,34.3,19.7,51.5,29.3,7.9,4.5,17.8,10.5,25.7,14.5,7.8-3.5,21.3-11.9,29-16.5,17.9-10.5,35.7-21.1,53.3-31.9,11-6.7,22.3-14.4,34.2-19.7,2.3-1,6-1,8.3-.5,3.9.7,6.1,6.7,4.2,10-4.1,6.9-18.3,15.2-24.8,19.4-11.6,7.6-23.3,15.1-35.1,22.3-11.8,7.3-34.7,22-46.7,27.5,10.8,3.6,32.6,14.7,43.6,19.9,14,6.5,28,13.1,41.8,19.9,9,4.4,29.4,13.3,33.9,21.9-.3,3.9-.5,5.1-1.5,8.8,5.2-.3,10-.4,15.2-.5-1.4-28.3-2.5-56.7-3.1-85-.7-22.8-1.8-47.3-1.8-70-47.7.4-94.7-1-142-.9ZM515.7,765.6c1.2,17.7,2.7,40.8,3.1,58.5,37,0,75.6.9,112.4,0l1.6-.4-.2-.6-68.1-33.5c-15.2-7.6-33.5-17.3-48.7-24.2ZM239.7,661.9c-.4,9.1,0,18.3.2,27.4,1,42,1.1,85,3.3,126.9,23.3-.3,46.7.2,70,0,10.3,0,22.6.4,32.8-.2.2-32-.1-63.2-2.3-95.1-.6-9.4-1.8-20.2-1.7-29.5-.3-8.9-1.1-15.6-1-24.8-6.1-1-21-.6-27.5-.5-.9,27.4,0,53.2.6,80.5.4,18,1.7,31-.4,49.3-4.6-11.2-5.9-28-7.1-40.3-2.4-23.3-4.2-46.6-5.4-70-.3-7,0-14.6-.3-21.4-20.4,0-40.8-.8-61.2-2.2ZM512.5,124.9c-47.4,25.6-95.7,54.1-142.8,80.6l-40.8,22.6c-2.6,1.4-18,9.6-19.2,11-29.8,37.5-57.2,77.8-88.2,114.5-19.4,23.4-40,45.8-61.7,67.1-5.8,5.8-11.8,11.4-17.9,16.8-3.8,3.4-9.2,7.9-12.5,11.5,3.9,4.9,8.6,10.8,13,15.1,17.2-12.4,30.2-24.9,45.3-40,37.4-37.3,68-79.3,99.7-121.3,9.2-12.1,18.4-24.2,27.7-36.2,2.2-2.9,12.5-16.5,14.4-18,6.7-5,23.5-11.7,31.7-15.6,7.2-3.5,14.4-7.2,21.4-11,27.6-15.1,54.9-30.5,82.1-46.3,10.7-6.3,32.8-20.1,43.3-24.7,5.3-.3,8.8.7,13.4,3.4,36.9,21.6,73.9,43,111.7,62.9,9.4,5,18.9,9.8,28.5,14.4,6.3,3.1,20.7,9.4,25.7,13.1,2.1,1.5,12,16,14,19,8.8,12.5,17.4,25.2,26,37.8,33.4,49.5,64.9,92.4,111.2,131.2,12.2,10.2,26.1,21.9,39.9,29.8,4.6-5.1,9-10.4,13.3-15.7-4.5-3.3-8.9-7-13.1-10.6-47.2-40.4-85.5-89.4-120.7-140.1l-27.1-39c-4.5-6.5-8.9-14.1-14.3-19.7-2.4-2.5-54.6-29.5-62.5-33.9-31.8-17.4-63.3-35.5-94.9-53.3-4.8-2.7-44-25.6-46.4-25.5Z"/>
  <path class="st0" d="M503.7,284.8c11.8-.6,76-.7,84.9,1.6,6.9,6.2,6.6,13.6,7.3,22.2.8,10.3,1.1,20.7,2,31,.5,5.5.7,14-3.3,18.2-1.9,2-4.3,3.3-7,3.8-5.5,1-13.5.2-19.2.4-17.2.6-34.7-1.1-51.8-.9-16.1-.3-33.1,1.3-49.4,1.1-10.9-.1-23,1.9-33.9.6-10.3-1.3-10.8-14.8-11.1-22.6-.4-9.4,0-19-.3-28.4-.1-6.9-1.2-26,9.1-26.4,24.1-.9,48.5.2,72.7-.5ZM459.4,344.6c16-1.2,33.9.3,49-.9,16.1-.2,31.1.1,47.2.4-17.6-9.1-32-17.4-48.2-28.7-6.3,3.7-12.6,8.2-18.9,12.1-9.6,5.9-19.3,11.6-29.2,17.1ZM526.4,306.7c15.3,8.4,28,15.5,43.7,23.3,2.6,1.2,6.2,2.7,8.7,4-.3-6.1-.5-22.5-1.6-27.8-7.7-.2-15.5-.2-23.2-.2-3,0-10.1-.1-12.8.2-4.7.3-10.2.6-14.9.5ZM440.1,333.7c9.4-4.4,20.5-11,29.7-16.2,4.9-2.9,12.6-7.2,17-10.5-16.4-1.4-31.7-1.6-47.5-2.8.4,9.9.8,19.5.8,29.4Z"/>
  <path class="st0" d="M484,391.2c8.4-.7,24.7-.2,33.7-.2,68.9-.3,137.4,10.2,203,31.3,19.6,6.2,38.9,13.4,57.8,21.4,29.7,12.8,21.9,15,22.7,45.5.2,7.1-3.4,28.3-11.9,13.2-2.6-4.7-1.9-26.4-3.2-33.8-14.8-8.8-36.6-16.2-52.9-21.8-65.5-22.4-125-34.8-194-38.5-3.3-.5-11.2-.4-14.9-.4h-24.1c-25.1,0-48.7,2.4-73.4,4.4-55.2,4.6-105.8,11.9-157.5,32.9-11.2,4.5-23.7,9.7-34.4,15.4,0,8.7,1.8,34-2.2,40.4-.9,1.4-2.1,2.6-3.8,2.8-2.1.3-4.2,0-5.9-1.4-2.3-2-2.7-6.4-2.9-9.3-.7-9.1-2.8-38.5,3.2-44.9,4.9-5.3,21.8-12.3,29.1-15.4,55.4-24.1,102.5-31.3,161.9-36.6,23.2-2,46.3-3.8,69.6-5.3Z"/>
  <path class="st0" d="M475.6,206.8c.9,0,2.2,0,3,.6,5.3,3.6,9.4,50.2,9.4,58.2,0,5-.4,7.4-4,11.1-4.3.9-7.2-7.4-7.6-10.6-1.8-12.9-7.6-48.3-.8-59.3Z"/>
  <path class="st0" d="M524.3,207.2c.5.3,1.2.6,1.6,1,5.4,5.1,4.4,46.1,4.2,54.1-.1,4.8-.6,9-4.2,12.5-6.1-4-5.8-28.7-5.8-36.2,0-9.1-1.1-23.9,4.3-31.4Z"/>
  <path class="st0" d="M434.4,232.8c7.8,2.2,13.1,34,13.2,41.8,0,1-1,3.3-1.4,4.2-.5,0-1.8.1-2.2.2-4.9-3.3-13.2-40.2-9.6-46.2Z"/>
  <path class="st0" d="M564.1,229.2c7.4,3.3,10.1,27.9,10.8,35.7.3,3.2,0,5.5-1.9,8.1-1.4.6-1.4.7-2.8.9-3.1-3-5-14.7-5.7-19.4-1.1-7.7-3.7-18.1-.5-25.3Z"/>
  <path class="st0" d="M774.3,551c13.2,0-1.9,20.1-14,21.2-15.2-6.3,7.6-17.9,14-21.2Z"/>
  <path class="st0" d="M642.3,539.9c7.1.1,8.3,7,9.9,12.7-.7,2.8-1,4.2-2.8,6.4-8.2,0-12.2-12.3-7.1-19Z"/>
  <path class="st0" d="M509.9,566.1c31.5-1.6,27,33.1,4.2,37.4-8.1,1.8-20.3-11.5-21.8-19.1-.7-3.5,0-7.1,2.1-10,3.7-5.5,9.5-7.1,15.5-8.3ZM515.9,586.5c12.8-3.1,6.1-11.8-5-10.4-1.9.4-6.4,1.6-6.9,3.6-1.7,6.9,8.7,6.8,11.9,6.7Z"/>
  <path class="st0" d="M536.6,549.1c8.2-.4,10.1,6,9,13.4-.5,3.3-2.2,5.1-5,6.8-1.9-.2-5.8-1.4-7.8-1.9-2.8-6.9-3.7-14.4,3.8-18.3Z"/>
  <path class="st0" d="M498.7,551.1c15.5-.9,18.9,14.9,3.4,11.2-4.1,1.6-3.6,4.1-7.4,4.6-.9-.4-2.1-.8-2.3-1.8-1.4-6.6.4-11.6,6.3-13.9Z"/>
  <path class="st0" d="M306.5,548.3c5.8-.5,11,3.8,11.5,9.7.5,5.8-3.7,11-9.5,11.6-5.9.6-11.2-3.7-11.7-9.6-.5-5.9,3.8-11.1,9.7-11.6Z"/>
  <path class="st0" d="M370.5,539.1c7.7-.4,10.6,1.3,12.7,8.9-1.6,6-2.6,7.8-8.5,9.8-2,.4-4.1.2-6-.5-8.2-2.9-7.7-14.4,1.9-18.2Z"/>
  <path class="st0" d="M336.7,605.2c5.1-.9,10,2.4,11.1,7.4,1.1,5-2,10.1-7,11.3-3.4.9-7-.2-9.4-2.8-2.4-2.6-3.2-6.2-2.1-9.6,1.1-3.3,3.9-5.8,7.4-6.4Z"/>
  <path class="st0" d="M384.9,592c9.5,1.4,11.8,14,1.8,18.2-10.2-.5-13.2-14.1-1.8-18.2Z"/>
  <path class="st0" d="M677.2,611c10.5,2.3,11.5,12.7,1.7,16.9-8.5.8-12.5-12.1-1.7-16.9Z"/>
  <path class="st0" d="M698.4,612c9.4,1,11.2,11.6,1.4,16.1-9.7-.2-12-11.3-1.4-16.1Z"/>
</svg>