<?xml version="1.0" encoding="UTF-8"?>
<svg id="Capa_1" xmlns="http://www.w3.org/2000/svg" version="1.1" viewBox="0 0 1024 1024">
  <!-- Generator: Adobe Illustrator 29.0.0, SVG Export Plug-In . SVG Version: 2.1.0 Build 186)  -->
  <defs>
    <style>
      .st0 {
        fill: #f4b248;
      }
    </style>
  </defs>
  <path class="st0" d="M344.6,109.3c24.5-.9,53.1-.3,77.8-.3l202.1,2,132.1,2h50.7c10.7,0,26.9-2,35.5,4.6,3.1,2.4,6.5,9.5,6.2,13.9-.7,11.4,2.8,27.6-4.2,37.2-7.9,8.9-27.6,6.2-39.3,6.5l-2.1,380.8c3.5,0,5.9-.2,9.3.6,13.1,3.1,14.4,15.1,13,26.5-1.6,12.5-11.5,17-23,16.8-4.3,0-8.3.3-12.7-.5-.1,16.3-.1,32.7,0,49,.8.2,1.6.3,2.4.5,10.4,2.6,13.9,6.4,19.2,15.3,4.5-1.3,9.2-1.5,13.9-1.4,50.3.5,75.7,40.3,88.6,83.7,3,10,5.4,26.3,9.5,34.6,5.6,11.5,19,27.7,27.8,36.9,3.2,3.4,6.8,6.3,10,9.7,2,2,3.7,4.2,3.5,7.2-.1,1.9-1.1,3.5-2.5,4.8-1.3,1.1-2.8,1.7-4.6,1.5-10.1-1.1-44.9-47.5-49.2-57.9-2.7-6.5-3.5-14-5.1-20.8-4.9-20.7-12.1-43.2-25.6-59.9-11.7-14.6-28-23.5-46.6-25.3-3.4-.3-16.2-1.2-18.5.7.4,1.1,1.5,1.9,2.5,2.4,16.9,8.4,32.4,18,47.5,29.4,8.3,6.3,17.8,13,3.5,20.7-5.5-3.2-11.2-9.4-16.5-13-11.2-7.8-50.6-36.4-63.5-28.8-2.3,1.4-4,3.6-4.6,6.2-1,4.3.8,8.8,2.4,12.8,11.5,28.2,35.8,24.8,43.3,38.2,3.6,6.4,1.9,16.5.2,23.3,6.1,13.7,14.8,27.6,26.4,37.2,2.6,2.1,10,7,11.7,9.4,1.1,1.6,1.5,3.6,1,5.5-.9,3.5-4.6,6.2-8.1,4.9-4.1-1.5-7.4-4.6-10.7-7.3-12.9-10.7-23.1-24.1-30.5-39.2-3,4.2-5.3,6.9-9.5,9.8,5.8,13.8,5.4,15.9,6.5,29.8,2.9,10,12.5,18.3,21.2,23.4,9.1,5.3,18.5,3.2,28.3,2.2,4.5,3.9,10.7,14.4,15.4,20.2,3.8,4.8,25.8,22,24.6,26.4-4.2,14.6-17.8-.2-23.3-5.3-9.4-8.9-16.2-17-22.8-28.2-22,5.3-43.7-9-53.1-28.4.8,22.6,0,45.9.9,68.6.3,6.4-8.4,8.8-11.5,5.7-5.6-5.7-2.4-21.1-3.3-28.7-.4-17.9.6-35.7-.5-53.4-5.7,3.3-12.3,4.8-18.9,4.2-16.8-1.6-26.9-13.8-25.1-30.8-17.4-4.9-26-21.4-13.9-36.4-1.8-1.5-3.4-2.9-5-4.6-9.3-9.5-9.7-27.4.4-36.5-9.6-9.7-14.3-20.6-9.2-34.2,3-8.2,9.2-14.9,17.2-18.5,8.1-3.7,16.5-3.5,24.7-.4,5.2-7.6,7.7-10.7,16.6-14.1l.4-50.3c-28.4-.8-59.4-.2-88.1-.1l-178.2.2c-.5,8.6-4,16.7-9.9,22.9-7.8,8.1-18.6,12.8-29.8,13.1-20.7.3-38.1-14.7-38.4-35.8-18.2.2-36.9,0-55.2,0-75.6.2-151.2,1.1-226.7,2.6-8.9.3-23.3,1.9-29.7-5-8-8.6-9.4-26.6,0-34.7,6.6-5.7,12.6-5.1,20.7-5,.1-26-1.3-52.5-1.9-78.4l-3-123.8-3-133.6c-.4-15.2-.4-29.2-1.1-44.6-16.5.3-36.4,3-36.9-20.2-.2-10.3-.8-20.8.3-31.1.7-7.1,7.7-13.7,14.8-14.9,19.1-1.3,38.5-.6,57.7-.9l175.6-1.2ZM133.4,125.5c0,11,.6,26.2,1.3,37.1l476.5-2.5,198.2.2c.2-10.7.6-21.6.4-32.2-31.4.1-63.5-1.4-94.9-1.9l-226.5-3.3c-37.3-.9-74.5-1.1-111.8-.6-13.7,0-29.4-.7-42.9,0-18.6.6-36.7.5-55.2.9l-86.4,1.8c-19.6.2-39.1,0-58.7.5ZM156.5,557.9c33.5,1.1,71.7-.2,105.5-.3l224.8-.6,303.7-.9c.7-51.3.9-102.6.7-153.9l1.4-227-221.6-1.8-79.6-.2c-11.6,0-24.9.5-36.2.2l-205.9,2.7-60.1,1c-13,.1-29-.3-41.8.5,1,28.1,1.1,57.1,1.8,85.3l4.7,188.1,1.7,78.4c.2,5.9.2,23.8.9,28.5ZM751.6,750.4c22-3.4,17.6-34.3-3.6-32.8-4.3.7-10.1,3.4-12.1,7.2-8.1,15.7-.2,25.9,15.6,25.6ZM490.1,614.8c4.9-5.6,5.5-7.7,7.4-14.8-17.1.1-34.2.2-51.3,0,1.7,22.2,28.8,28.9,43.8,14.8ZM780,677c8-3.7,11.6-3.8,20.2-1.6-2.7-10.4-6.5-15.2-18.1-13.8-12.8,5.2-12.7,12.7-11.8,25.1,3.7-5.2,4.3-6.3,9.8-9.7ZM823,160.3c3.8-.1,7.3.3,10.4-1.6,2.6-5.4,2.4-19.9,1-25.9-1.3-5.3-6.7-4.8-11-4.8-.5,10.3-.3,22-.4,32.4ZM776,813.7c12.4-1,18-5.8,18-18.4-10.5-.9-11.5-2.4-18.8-9-4.9,4-17.6,6.4-17.8,11.2-.4,8.3,10.1,16.8,18.5,16.1ZM778,570l-246.7-.2-290,1.1c-34,.5-68-.2-102.1.8-5.8.3-10.4,2.3-9.9,8.9.5,6,3.8,8.5,9.7,8.5,33,.3,66-.5,99-1l139-1.2c46.2-.8,92.4-1.1,138.7-.9h162.7c32.3,0,66.7.6,98.9,0,.1-5.3.2-10.7.7-16ZM790.3,570c-.3,5.4-.2,10.7-.2,16.1,4.9,0,11.2.1,15.9-.2,8-3.5,8-10.4,1.7-15.8-3.9-.4-6.5-.4-10.4-.4l-7,.3ZM116.9,125.1c-1.2.4-5.3,1.5-5.8,2.9-2.5,7.4-1.4,22.5-.4,30.5.3,2.1,2.3,3.3,3.5,4,2,0,4.2.2,6.2.2,0-4.6,0-34.4-.7-37.1-1.4-.6-1.3-.5-2.9-.5ZM756,675.3c-3.3-.9-5.2-1.6-8.7-1.2-6.2,1.3-11,3.4-14.5,9.1-2.8,4.5-3.6,9.9-2.2,15.1,1.1,4.4,3.6,8.1,6.6,11.4,4.9-2.2,8.9-3.4,14.4-3.3,7.4,1,9.3,2.2,15.8,5.9-7.7-13.8-11.4-21.3-11.4-37ZM776.9,725.7c.3,15.8-5.1,55.9,19.1,55.8,10.6,0,15.6-11.4,17.3-20.4-.4-1.6-.7-3.6-1.6-4.9-3.1,4.4,2.4,16.4-15,20-4.6-1.2-8.6-2.6-11.1-7.2-7.1-13.2-.2-29.9-8.7-43.3ZM767.2,753.9c-2.2,1.4-4.2,2.7-6.6,3.6-8.5,3.1-19,1.8-21,13.1-.9,4.9,2.2,8.7,6,11.3,7.5,2.6,13,1.4,20.2-1.5,7.6-3.2,4.3-8.6,3.4-15.1-.5-3.8-1.1-7.1-1.4-11l-.7-.3Z"/>
  <path class="st0" d="M206,183.2c11-.1,22.5-.3,33.6-.2,1.7,0,2.5.8,3.3,1.9-.2,2,.1,1.1-1.2,2.7-6.5,2.7-38.1,2.7-47.1,3.2-10.7,0-21.5.3-32.3-.2-2.3-.1-6-1.1-5.6-4,4.2-3.6,15.3-2.9,21-3l28.2-.6Z"/>
  <path class="st0" d="M715.3,181.1c18.2-.9,37.2.3,55.5,0,2,0,6.3.4,7.6,1.9.7,1.6.7,1.4.4,3.2-1.4,1.6-.6.9-2.9,1.6-8.9,1.8-54.3,1.6-61.4-1.6-1.3-.6-1.5-1-1.9-2.3.9-2,.6-1.4,2.7-2.8Z"/>
</svg>