<?xml version="1.0" encoding="UTF-8"?>
<svg id="Capa_1" xmlns="http://www.w3.org/2000/svg" version="1.1" viewBox="0 0 1024 1024">
  <!-- Generator: Adobe Illustrator 29.0.0, SVG Export Plug-In . SVG Version: 2.1.0 Build 186)  -->
  <defs>
    <style>
      .st0 {
        fill: #f4b248;
      }
    </style>
  </defs>
  <path class="st0" d="M637.9,545c10.8-.8,36.6,3.1,48.5,4.5l95.1,11.2,114.6,13,32.6,3.8c10.8,1.2,31.5.6,32.6,15.3,1.8,23.9,2.1,48,3.7,71.9.5,7.3,1.1,15.1-.4,22.3-.5,2.1-3,4.2-4.8,5.5-10.1,7-21,14.2-31.1,21.1-22.8,15.5-45.8,30.9-68.8,46-6.5,4.2-18.2,13.2-25.4,14.2-3.3.5-13.7-1.1-17.5-1.5-12.1-1.4-24.3-3-36.4-4.8-17.7-2.4-36.5-4.3-54-7.7-14.3-2.8-15.8-17.1-16.1-29-.2-5.9-.5-12.7-1.1-18.8-14.5-2.5-27.7-3.9-42.2-5.8l-63.9-8.9c-13.2-1.9-27.1-3.3-40.2-5.9-5.4-1-10.6-4.5-13.4-9.4-1.4-2.5-2.3-5.3-2.7-8.1-1-7-3-61.5-1.4-66.8,1-3.3,4.7-6.1,7.6-8,7.6-4.9,16.8-8.3,25-12.1,13.5-6,26.8-12.3,40.1-18.7,1.4-13.4,6.2-19.6,19.5-23.4ZM624.3,612.7c16.6,2.5,33.9,4.5,50.5,6.5,9.7,1.1,21.8,3.6,31.2,3.9.6-7.3,2.3-43.4,6.2-46.9,1.3-1.1,2.7-1.9,4.3-2.7,26.1,1.7,52.4,6.3,78.4,9.2,2.4.3,3.9.6,6.2,1.3,1.2,1.4.7.6,1.2,2.9-1.1,3-3.9,3.2-6.8,2.9-7.4-.9-14.7-2-22.1-2.9-18.4-2.2-36.7-4.5-55-7-1.6,14-2.9,29.6-4,43.7,13.4,1.1,28.2,3.2,41.7,4.9,18.3,2.1,36.5,4.6,54.8,7.4,1.1-8.8,2.4-38.3,4.4-45.1,2.7-2.9,4.6-4.9,8.8-4.4,13.9,1.5,29.9,2.7,43.6,4.8,8.4,1.3,41,3.5,46.9,6.1,1.6,2.5,1.1,4.3-1.1,5.9-4.8,1-48.6-5.9-56.8-6.2-11.6-1.4-22-2.5-33.5-3.6-.9,4.7-1.3,9.6-1.4,14.4-.3,9.5-1.6,19.3-1.8,28.7,18.7,2.4,49.1,6.5,68.8,7.9,4.2.3,20.8-16.9,27.2-11.4,1.1,8.6-32.4,20.8-37.2,28.1-1.4,2.1-.8,11.7-.6,14.4.4,5.8,8.9,5.5,14,6.6,0-6.5,0-13.4.5-19.9,4.5-4,13.7-9.7,19-13,9-5.8,18.1-11.6,27.2-17.2-4.3-1.5-13.6-2-14.8-5.3-1.8-5-1.5-18.3.2-23.4,1.7-5,15.8-9.7,17-11.6-2.3-2.3-167.8-20.3-184.6-22.4l-72.8-8.4-27.5-3.3c-3.8-.5-12.5-2-16.1-1.8-3.9.8-8.7,2.3-11.1,5.7-2.5,3.5-4.1,43.6-4.8,51ZM719.8,716.8c.3,5.6.5,25.6,3.6,28.1,6.1,4.9,29.5,6.8,37.3,7.8l46.1,6.1c6.2.8,17.8,2,23.6,3.4-.5-5.2,1.2-41.5,4.2-43.9,11.3-9.1,33.5-23.5,45.5-31.9-3.1-.6-7.5-1.2-9.7-3.3-2.4-5.2-.7-18.7,0-24.6,2.8-2.8,5.2-4.4,8.4-6.8-16.6-.9-34.2-4.9-50.8-6.3-3.5-.3-7.8-.8-11.2-1.4-6.7,3.4-18.5,12-25.2,16.3l-66,42.5c17.5,1.1,36.9,4.4,54.5,6.7l28.1,3.6c5.1.7,21.7,1.1,21.3,7.6-.9,1.5-.9,1.7-2.4,2.6-2.8.5-22.9-2.9-27.2-3.5l-44.8-6c-11.7-1.6-24-3.7-35.7-5,.1,2.6.2,5.6.5,8.1ZM583.5,682.7c7.4,2,22.5,3.4,30.7,4.6,11.1,1.7,22.2,3.3,33.4,4.8,3.3.4,10.7,1.6,13.7,1.3l.8-.7c0-11.3,1.5-23.4,2.2-34.7-26.5-3.3-54.7-8-81-10.6-.7,10,.1,24.8.4,35.2ZM900.9,667.1c-.7,5.4-1.5,48.2-.3,50.5l1.1-.4c7.5-3.6,22.3-14.7,30.1-19.8,4.4-2.9,20.9-13.6,24.2-16.4,0-5.4-1.6-44.6-3.1-46.7-8.9,6.4-18.9,11.7-28.1,17.8-7.7,5.1-16.5,9.4-23.8,15ZM582,619.1c0,6.6.1,11.2.7,17.7,9.8-5.1,22.5-14.3,33.1-20.4.2-4.1,2.2-34.2,1.7-35-12.2,7.2-26.9,12.8-39.8,19-4.5,2.2-10.8,4.8-15,7.3,6.1.4,12.9,1.3,18.8,3.1.2,2.7.5,5.6.5,8.3ZM670.1,694.6c9.4,2.6,30.9,4.7,42.1,6.8,9.7-6,19.3-12.2,28.9-18.4,5.9-3.8,14.9-9.5,21.1-12.5-21.7-3.1-43.4-6-65.2-8.7-4.9-.6-21.3-2.2-24.8-3.2-.5,9.4-2.5,27.5-2.1,36ZM699.6,629.6c-11.4-.8-26.2-3.1-37.9-4.6-11.1-1.4-26.7-3-37.5-5.1-4.1,1.3-28.3,17.3-32.9,20.7v.6c4.3.9,8.8,1.3,13,1.8,20.6,2.3,41.2,5.7,61.7,8.1,5.4-2.3,27.6-17.5,33.5-21.4ZM573.4,617.1c-6.9-1.8-13.5-1.6-18.4-2.9.1,16.7,1,33.5,1.6,50.2.1,3.4-.1,8.6,2.4,11,3.2,3.1,11.2,6.1,15.7,5.8l-.8-48.4c0-4.8-.7-11.1-.5-15.7ZM932.1,608.7c-.4,4.6-1.6,9.2.7,13,1.5,1.3,2.7,1.2,4.8,1.4,5.3.7,9.8,2.4,15.5,3.1,0-3.3,0-26-1.5-27.8-6.3,3.7-13.3,6.5-19.4,10.3ZM890.7,689.3c-9.5,6.9-19.2,13.7-28.9,20.3-2.4,1.6-19.5,12.9-20,14.4-1.1,3.2-2.9,31.9-1.9,33.9h.4c9.3-4.8,21.9-14.2,30.9-20.2,4.8-3.2,16-10.3,20-13.5,0-4,.5-33.3-.5-34.9ZM679.1,652.1c21.5,3.3,43.1,6,64.7,8.6,4.5.5,23.7,3.4,26.8,3.2,8.8-5,25.4-15.9,34.1-21.7-29.1-4.2-62.3-8.5-91.5-11.8-10.8,6.9-23.2,15.1-34,21.7Z"/>
  <path class="st0" d="M645.3,564.9c2.1,0,9.1.8,10.8,1.2,9.5,2.5,40.1,2.6,47.1,6.4,1.8,2.7.5,4.4-1.8,6.1-9.9-.9-21.8-2.9-31.9-4.1-5.6-.6-21.9-2.5-26.1-3.8-1.4-1.7-1.1-.8-1.2-2.8,1-1.8,1.2-1.9,3.1-3.1Z"/>
  <path class="st0" d="M701.9,252.4c3.9-.3,18.5.5,21,3.2l-.2,1c-3.5,3-7.9,2.4-12.2,3.8-34.6,11.6-69,23.9-103.6,35.7-1.1.4-2.5.9-2.9,2,4.3,2.8,13.1,1.5,17.9,5,2.2,3.3,5.2,46.8,5.7,53.8,5.8-1.1,16.7-6.3,22.6-8.9l27.7-11.9c10.8-4.7,29.2-11.7,39.1-17-.6-13.4-2.1-27.7-3.2-41.1-4,1-13,4.3-17.1,5.8-13.8,4.8-27.6,9.8-41.2,14.9-5.8,2.1-11.6,4.4-17.5,6.2-3.2,1-5.9.2-7.1-3,.4-2.8,2.5-4.2,5-4.8,16.2-3.9,71.1-28.7,84.9-27.8,2.4,2.4,2.6,9.8,2.8,13.1.7,12.4,2.2,24.9,2.5,37.3,25.2,4.5,54.9,11.6,80.2,17.2-.2-15.6,1-31.5.7-46.3-25-5-50.4-8.6-75.3-14.2-2.5-.6-1.4-4.4,0-6,.7-.4,1.3-.6,2.1-.6,6.5,0,20.8,3.4,28,4.7,15.1,2.7,30.8,4.7,45.6,8.5,1.8.5,5.7,1.5,6.8,3.1,2.5,3.9.8,45.5.6,52.8,8.3,2.7,26.5,5.5,35.8,7.4l59.9,12.7c.4-8.9.6-17.7.6-26.6,0-9.2-.2-20.4,1.1-29.4,4.3-3.6,9.7-6.7,14.6-9.6-4.1-.8-7.7-1.4-11.8-1.9-4.4-.9-9.2-1.6-13.6-2.3-39-5.9-77.8-12.6-116.8-18.2l-35.4-5.3c-3.4-.5-15.7-2.1-18.3-3.1-1.2-2.1-.9-4.1-.4-6.4,2.5-3.6,8.2-3.8,12.1-3.3,14.9,2,29.9,4.2,44.8,6.3l92.7,14c10.1,1.6,20.2,3.2,30.4,4.7,10.2,1.5,21.7,2.4,31.5,5.7,6,2,9.9,9.1,10,15.4.3,29.6.3,59.4-.3,89-.1,7.2-2.3,10.1-8.3,13.7-7.8,4.7-15.6,9.2-23.5,13.8-17.6,10.1-35.4,19.9-53.4,29.3-33.4,17.8-22.9,15.4-60.4,8.5-27.6-5.1-55.1-10.5-82.5-16.1l-71.3-14c-15.3-2.9-30.6-6.1-45.8-9.2-15.2-3.1-19.2-9.6-19.7-24.7-.2-7.2-.4-14.9-.6-22.2-1-17.4-.9-35.7-2.2-53-1.8-24.4,11.4-25.1,30.8-31.8l38.8-13.2,30.3-10.5c5.4-1.9,12.8-4.7,18.2-6ZM746.3,380.1c26.2,5.8,53,10.1,79.3,15.9,4.7,1,10,2,14.8,2.7,1,0,1.7,0,2.5-.5,20.4-10.8,41.1-21.3,61.5-32.2-24.8-6.8-51.4-10.5-76.4-16.5-2.5-.6-14.6-3.4-16.5-3.3-8.9,4.1-19.1,9.6-27.8,14.1-12.6,6.3-25,12.9-37.3,19.7ZM639.5,360.9l45.7,8.7c9.4,1.7,26.4,4.5,35.4,7,2.3.4,10,1.9,11.6,1.3,5.4-1.9,12.5-6.2,17.7-8.9l37.2-18.7c4.6-2.4,9.3-5.1,13.9-7.4-7-.2-14.4-2.5-21.3-3.9-12.2-2.5-24.6-5.3-36.7-7.9-5-1.1-17.7-4.5-22-4.9-14.6,5.9-29.4,12.4-43.8,18.7-12,5.2-26,10.6-37.6,16ZM835.4,444.1c-.3-6.3.3-11.6.5-17.9.2-6.9.2-13,1.3-19.8-10.8-3.4-23.9-5.1-35-7.4-19.3-3.9-38.5-8.1-57.8-11.6-2.6-.5-5.3-.8-7.9-1.4-.9,7.2-.7,32.8-.4,40.9,26.1,4.6,52.1,10.4,78.3,14.7,3.2.5,18.6,3.8,20.7,3.6l.4-1ZM941.1,297.2c-4.3,2-17.1,7.3-20.2,9.6-.2,9.9-2.6,91.1-1.5,93.3l.8-.2c4.8-2.4,20.4-9.6,20.8-13.7,1-10.8,2.4-83.5.8-88.7l-.8-.3ZM631.2,405.9c21.8,5.3,45.1,9,67.1,13.9,8.5,1.9,19,3.4,27.2,5.7h1.2c.8-1.8.4-35.9.5-40.6-12.6-1.4-91.4-18-94.5-17.2l-3.6.3c-.9,1.5,1.8,34.7,2.2,38ZM845.4,406c-.4,6.1-.4,11.8-.6,17.8-.2,6.3-1,12.2-.8,18.5.8.3.4.3,1.1.1,10.4-4.7,25.4-14.2,36.2-19.7,5.5-2.8,24.2-12.7,28.7-15.8,0-11.2.5-24.5.1-35.4l-.3-.2c-14.2,9.3-32.6,17.4-47.7,25.8-5.5,3-11.4,5.5-16.7,8.9ZM622.1,404c-3-29.2-3.8-58.5-7.1-87.6-.3-2.3-.7-4.5-1.2-6.8-5.9-2.1-13.8-3.5-20-3.4-.7,7.5.8,23,1,31.3.3,16.9,1.3,34.2,2.2,51,0,1.7.8,6.9,1.7,7.9,4.1,4.6,17.8,7.2,23.3,7.6Z"/>
  <path class="st0" d="M279.1,533c16-.5,45.2,4.2,61.9,5.9,33.1,3.6,66.2,7.5,99.3,11.2,7.3.8,13.8,1.4,18.4,7.7,1.6,2.2,2.6,4.8,2.8,7.5.4,4.4,0,12.8,0,17.3-.2,10.7-.6,21.5-1,32.2-.4,11.5-.2,23.4-1.7,34.8-.3,2.5-1.6,3.7-3.4,5.3-3.7,3.2-7.9,6-12,8.7-17.6,11.5-34.6,24.2-52,35.9-4.2,2.4-8.8,3.7-13.6,3.1-46.2-5.8-92.2-12.3-138.3-18.4-21.5-2.9-28.3-5.8-27.5-29.8.3-9.3-1.2-16.7,2.6-25.9,11.3-8.7,28.7-17.9,41.4-26.1-.1-8.8,2.9-52.3,6.6-58.5,3.5-5.9,10.1-9.4,16.5-10.9ZM269.4,551c-1.5,14.6-3.1,30.1-4.1,44.8,16,2.2,32.1,4.3,48.1,6.3,6.8.8,19.2,2.6,25.6,2.6,0-7.2,1.2-15.4,2-22.6.9-7.6-.2-17,6.1-22.1,7.6-.1,66.3,6,69.4,8.6.9,1.9.7.9.5,3-.6.8-1.1,1.7-2.3,1.8-18.5.4-45.9-6.3-63.5-7.1-1.8,12.1-2.8,26.6-4.1,39,4.3,1.2,10.6,1.5,15.2,2.1,11.6,1.5,23.3,3,34.9,4.3,3.8.5,14.6.9,16.6,3.8.3,2,.4,1.1-.4,2.9-4.3,3.4-24.1-1-30.6-1.5-11.8-1.5-23.6-3-35.4-4.4-13.2,8.9-28.3,16.8-40.9,25.5,7.1.7,16.9,2.4,24.3,3.4l53.5,6.9c8.6-7.8,29.2-19.1,34.5-25.3.3-6.7,2.9-47.6,5.8-50.5,4.5-4.5,14.5-5.3,19.2-9.6-1.3-1-148.5-18.2-161.4-18.6-6.1.8-8.9,1.9-13.1,6.9ZM426.8,628.6c-8.9,9-29.4,18.7-36.7,26.4-.4,4.9-1.9,25-1.4,29.9l.7.4c10-5.5,19.3-12.1,28.7-18.5,10.7-7.2,21.3-14.5,31.9-21.8.4-8,3.4-73.1,1.8-76h-.5c-3.7,1.4-17.9,6-19.5,9.5-.7,1.4-1.3,9.2-1.4,11.4l-1.9,23.8c-.4,5.1-.4,10-1.6,14.9ZM334,612.1c-7.8-1.8-60.4-8.7-66.4-8.2-8.8,6.5-28.3,18.1-38.3,23.9,8.1,1.5,61.9,8.9,66.6,8,11.1-5.7,26.9-16.8,38.1-23.6ZM222,634.5c-.3,5.9-1,28.2.9,32.9,4.7,5,23.1,6.6,30.3,7.6l41.8,5.7c.7-10.1-1.1-24.9-.8-36.5-10.6-2-21.8-3.2-32.6-4.6-12.9-1.7-26.6-4.1-39.6-5.1ZM381.6,655c-16.7-2-33.5-4.1-50.1-6.4-8.4-1.1-21.2-3.3-29.4-3.8,0,12.2,1.1,24.2,1,36.4,6.7,1.5,72.7,10.2,76.2,9.7l.8-1c0-11.9,1.4-23.5,1.5-34.9Z"/>
  <path class="st0" d="M282.9,552.9c14.3-.9,34.9,4.6,49.7,5.3,2,0,3,.7,4.1,2.2.3,2-.3,2.8-1.1,4.8-.1,0-.3,0-.4,0-13.6-1.4-27.2-3.2-40.8-4.9-2.9-.3-11-.9-12.7-2.7-.4-1.8.4-3,1.1-4.8Z"/>
  <path class="st0" d="M405.2,274.5c5.5.3,14.4,1.9,19.9,2.7l24.9,3.6c15.2,2.2,30.5,4.2,45.5,6.7,9.2,1.6,14.2,9.8,14.3,18.5.2,12.9-.3,26.3-.5,39.1l-.2,33.1c0,5.6.3,12.5-.8,17.8-.6,2.8-2.4,4.9-4.7,6.5-7.9,5.8-17.4,11.1-26,16.1-15.3,9-30.7,17.9-46.2,26.7-2.8,1.3-6,2.3-9.1,2-22.3-2.4-44.4-7.1-66.6-10.5-5.3-.8-12.3-1.8-17.3-3.3-2.9-.9-5.5-2.6-7.5-4.8-1.8-2-3.1-4.5-3.7-7.1-1-4.5-.5-12.1-.4-16.9.1-6.7-1.3-16.8,2.5-22.4,1.3-1.9,8.5-6.1,10.8-7.5,7-4.2,14-8.3,21.1-12.3,5.2-3,12.4-6.4,16.8-10.4-.5-10.2-.2-21.3-.2-31.6.2-8.4-.5-17.1.8-25.5,1.7-11.7,15.6-19.6,26.4-20.5ZM394.2,289.2c19.2,5.6,41.9,7.1,61.6,11.4,4.5,1,11.3.4,11.8,5.8-.6,1.1-.9,1.6-2.2,2.1-4.5,1.6-69.5-10.6-77.2-12.4-.9,11.8-.8,38.3-.2,50,4.3,1.4,11.3,2.4,15.9,3.1,20.4,2.8,41,7.2,61.4,10.4,2.9.5,5.9.9,8.7,1.6,0-11.5,0-22.2.8-33.6.4-6-.3-11.3,1.1-17.5,6.2-4.8,9.2-6.5,16-10.3-15.3-3-32.2-5.4-47.7-7.7-10.8-1.7-32.5-5.9-42.7-5.7-3.2,1-4.3,1.4-7.3,2.9ZM336.3,389c-.8,4.8-1.2,25.9.7,29.9,1.9,4.2,28.6,8.2,34.3,9,16.2,2.3,32.5,5.3,48.7,7.6,0-10.6-.2-23.1.4-33.5-14.2-1.6-28.3-3.7-42.4-6.2-12.6-2.2-29-5.4-41.6-6.7ZM389.7,354.1c-4.7,3.2-9.6,6.2-14.6,9-10.9,6.3-21.7,13-32.7,19.2,24.2,3.3,48.2,8.4,72.3,11.9,2.7.4,5.6.9,8.3,1.1,13.6-7.1,26.7-15.8,40.1-23.3,2.4-1.3,5.1-2.9,7.3-4.3l-62.5-10.5c-5.4-.9-13.2-2.5-18.3-3.1ZM499.6,392.1c1-14,.2-33.2.7-47.7.2-6.5.7-33.9,0-38.4l-.4-.4c-5.6,2.7-10.8,5.3-16.1,8.8-.6,12-1,23.9-1.3,35.9-.6,19.2,2.3,18.1-14.7,28.2-6.7,4.1-13.6,8-20.4,11.8-4.4,2.4-14.9,8-18.5,10.9-.2,5.5-1.3,27.4-.1,31.6,5.7-2.2,21.6-11.5,27.6-15.1,13.9-8.3,29.9-17,43.3-25.7Z"/>
  <path class="st0" d="M152.9,284.9c3.4-.3,6.6,0,10,.5,17.6,2.3,35.3,4.7,52.9,7.3,6.1.8,22.6,2.4,27.4,4,3.4,1.2,6.4,3.4,8.5,6.3,5.9,7.9,2.1,32.3,3.3,42.7.4,3.8.3,19-2.4,21.3-14.7,12.3-31.1,23.3-46.6,34.7-9.7,7.1-11.8,7-23.7,5-16.6-2.3-33.2-4.7-49.7-7.3-11.9-1.8-51.9-3.8-53.7-18.6-1.9-15.4-1.3-34.8-1.3-50.6,0-13.3,13.1-17.1,23.1-21.9,8.7-4.2,17.5-8.3,26.4-12.3,6.6-3,19.3-9.2,25.9-11.1ZM92.6,380c8.8,2.7,18,3.8,27.1,5.3,13.6,2.2,27.2,4.2,40.8,6.1,7.9,1.1,18.8,2.4,26.5,4,.2-18.2-.5-37.2,0-55.3,4.1-5.5,17.4-12,23.8-15.8,9.1-5.4,19-11.4,28.5-16-18.3-3.1-36.4-5.8-54.8-8.2-9.3-1.2-22.2-4.3-31.1-4.8-10.3,3.3-21.5,9.2-31.4,13.9-7.2,3.4-17.7,7.9-24.4,11.7l.7.2c5.1,1.4,14.7,2.6,20.2,3.5l39.6,5.7c6.4.9,12.9,1.6,19.2,3.1,2.2.5,2.6,1.8,2.9,3.9-1.1,3.1-4.5,3.3-7.5,2.9-11.6-1.5-23.1-3.3-34.7-4.9l-34.1-4.9c-4.8-.7-11.3-1.4-15.9-2.5-.2,6.6-.8,47.4,2.1,50.6.6.6,1.7,1.3,2.6,1.5ZM195.8,343.2l.4,49.6c.2,0,.4.2.6.3,15-8.8,28.8-20,43.2-29.7,2-1.3,3.7-2.5,5.4-4.2.5-11.8,1-33.7-.1-45l-.3-.3c-10,5.9-20,11.7-30,17.4-5.8,3.4-14.2,7.9-19.3,11.9Z"/>
  <path class="st0" d="M107,533.6c12-1,31.1,3.9,43.5,4.8,8.2.6,17.3,2.1,25.4,3.4,2.2.3,4.6,1.8,6.1,3.3,2.2,2,4.5,6.8,4.7,9.9.6,14.8.4,30.1-.5,45-.4,7.4,1.8,34.9-3.3,39.2-7.2,6-18.5,12.8-26.6,18.4-9.5,6.5-19.5,13.4-29.4,19.5-1.9,1.2-7.2.9-9.6.9-9.5.1-26.3-2.9-35.1-4.2-31.2-4.7-46.2,1-44.8-37.4.9-24.1,1.8-21.5,22.4-33,7.9-4.5,15.9-8.8,24-13,.5-11,2.3-22.1,3-33,.8-12.9,6.9-21.5,20.2-23.6ZM157.8,562.4c3.8-4.3,8-5.6,12.4-9.3-6.1-2.2-56.2-8.8-63.4-8.6-4.1,1.3-6.4,3.1-9.7,5.6-1.2,5.8-1.8,13.6-2.4,19.5-.6,6.5-1.6,14.2-1.9,20.6,18.8,2.9,43.1,4.9,61,8.5l.5-.8c1.4-11.4,1.6-24.3,3.5-35.4ZM120.5,666.7c-.2-10.9,1.1-22.2,1.6-33-24.6-3.9-49.6-6.2-74.2-10,0,4.5-1,30,1.6,31.4,11.4,6.2,32.1,6.4,45.3,8.6,4.5.8,22.8,3.4,25.6,2.9ZM154.2,606c-6.7-.4-15-2.1-21.7-3.1-9.7-1.5-19.5-2.8-29.2-4.1-2.9-.4-13-1.9-15.5-1.5-11.3,6.9-23.8,12.9-35.3,19.7,8.2,1.5,16.5,2.4,24.7,3.4l43.2,5.8c5.7.8,22.4-12.5,28.3-15.6,1.4-.7,4.3-3.5,5.5-4.6ZM165.1,565.9c-.3,8.7-1.2,17.6-1.8,26.4-.4,5.8-.5,13.3-1.9,18.8-8,7.9-23.8,13-30.6,21.5-1.5,1.9-2,25-1.8,28.3.9.5.5.5,1.3.4,10-6.4,20-13,29.9-19.6,4.4-2.9,14-9,17.5-12.3-.3-15,.9-30.3.5-45.4-.2-8,.6-16.4-.1-24.3l-1.1-.4c-3.9,1.9-8.2,4-11.7,6.6Z"/>
  <path class="st0" d="M108.7,552.9c2.2,0,9,.5,11.1,1,6.4,1.5,25.9,1.1,28.4,7-.4,1.8-.5,1.8-1.7,3.1-5.6-.3-34.4-3.9-39.2-5.3-1.2-1.1-.8-.5-1.2-2.1.6-2,1-2.2,2.5-3.7Z"/>
  <path class="st0" d="M341.3,328.1c5.1,3.2,4.7,5,7.8,9,8,10.1,10.9,13.9-2,21.6-4.5,2.7-10.5,6.2-15.2,8.8-1.5.9-1.7.7-3.2.2-6.3-6.3,9.5-12.9,13.6-17.7-9.8-.4-20.6-2.1-30.6-2.9-6.8-1.5-19.1-1.5-26.1-.8-4.2.8-8.9,4.8-13,1.7-2.1-1.6-2-5.3,0-6.4,16.8-8.8,49.7-2,66.9-.3-2.5-6.2-4.6-9.1,1.7-13.3Z"/>
  <path class="st0" d="M518.7,600.7c.9.1,1.5.3,2.3.8,1.6.9,15.5,19.2,16,21.3.3,1.3-.3,2.7-1.1,3.8-3.2,4.7-19.7,15.9-25,16.6-1.3.2-2.1,0-3.2-.9-3.8-6.6,10-13.3,14.6-16.2-3.8-.1-6.9-.6-10.7-1.1-7.3-1-18.3-2.2-25.7-2-4.4.1-10.2,4.2-15.5,2.1-1.9-2.1-1.6-5.6.6-6.8,12.7-6.9,33.9-2.7,47.6-1.9-2.3-5.6-6.6-12.2.1-15.8Z"/>
  <path class="st0" d="M822.9,285.3c10.2-.4,61.2,10.6,74.6,12.7.8.1,1.6,1.6,1.6,2.5,0,1.8-.7,2.7-1.8,4.1-5.5,1-28.6-4.4-35.7-5.4-12-1.7-26.2-4.8-38.2-7.4-3.2-.7-1.5-4.9-.6-6.5Z"/>
  <path class="st0" d="M218.5,585.8c3.6.4,7.7,8,9.5,11,2.3,3.8,6.2,9.3,3,13.5-4.5,2.7-21.4-.5-27.9-1.1-2.5-.6-15.7,0-9.7-7.4,2.8-3.4,19.8-.4,24.5-.5h.8c-2.9-5.3-8.8-12.8-.3-15.5Z"/>
</svg>