<?xml version="1.0" encoding="UTF-8"?>
<svg id="Layer_1" data-name="Layer 1" xmlns="http://www.w3.org/2000/svg" viewBox="0 0 50 50">
  <defs>
    <style>
      .cls-1 {
        fill: #001c63;
      }
    </style>
  </defs>
  <path class="cls-1" d="M.47,28.51h4v13.57c0,.57.97.66.97.07v-13.64h44.14c.39,0,.63-.64.13-.88-.35-.17-1.61-.1-2.08-.1-13.51.21-27.05-.1-40.59,0-1.64.01-3.29-.05-4.93,0-.24,0-.99.2-1.12,0-.11-.24.05-.48.05-.72,0-.46-.16-.97-.08-1.46h48.7c.28,0,.48-.66.21-.83-.32-.2-.64-.06-.96-.06-14.66-.1-29.33-.09-44.1,0-.91,0-1.84-.16-2.73,0l.09-.17,23.15-15.87,24.04-.03c.76-.03.92-.88.07-.98-8.14.07-16.31-.12-24.43.1L.28,24.51c-.15.14-.2.33-.22.53-.07.63-.08,2.29,0,2.92.03.22.18.51.41.56ZM10.65,25.91c-.28.06-.6.44-.47.73.28.61,1.84.55,1.76-.25-.05-.53-.9-.56-1.29-.48ZM17.75,25.91c-.28.05-.47.22-.57.48.04.92,1.98.88,1.77-.07-.1-.46-.83-.48-1.2-.41ZM24.7,25.91c-.14.03-.45.28-.49.41-.26.91,1.88,1.02,1.78.07-.05-.53-.9-.56-1.29-.48ZM31.73,25.91c-.82.17-.65,1.16.36,1.16,1.33,0,1.17-1.48-.36-1.16ZM38.76,25.91c-.49.1-.76.61-.32.96.41.33,1.54.27,1.54-.41,0-.57-.8-.63-1.22-.54ZM45.78,25.91c-.9.18-.6,1.2.41,1.16,1.24-.05,1.03-1.45-.41-1.16ZM31.08,28.58h-2.92c.15.25.55.21.79.29.62-.09,1.25-.12,1.87-.2.1-.01.27.04.25-.09ZM25.11,29.87c-.19.34-.64,2.02.21,1.59.25-.12.76-2.13-.21-1.59ZM30.01,29.79c-.43.12-.32,1.37-.17,1.71l.23.08c.55-.09.33-.47.34-.78,0-.27.19-1.16-.4-1.01ZM34.95,29.87c-.13-.13-.45-.13-.54.06-.14.28.14,2,.75,1.5.21-.17-.09-1.43-.21-1.56ZM19.36,31.48c.08.07.27.11.38.08.22-.06,1.12-1.98.18-1.7-.17.05-.6,1.12-.64,1.31-.01.09.01.23.08.3ZM40.48,31.48c.16-.15-.27-1.32-.4-1.47-.16-.2-.55-.22-.62.05-.05.19.42,1.45.64,1.51.1.03.3,0,.38-.08ZM14.29,30.03c-.25,0-.85,1.02-.9,1.24-.04.17.07.4.24.44.32.06,1.39-1.69.66-1.68ZM45.15,30.1c-.09.09-.09.23-.06.35.02.08.52.99.58,1.07.21.27.44.23.61-.05.08-.17-.39-.91-.51-1.09s-.36-.54-.61-.29ZM25,32.57c-.6-.5-.86,1.27-.77,1.47s.37.3.54.13c.13-.13.43-1.39.22-1.61ZM35.28,34.17c.15.14.4.06.51-.09s-.09-1.13-.18-1.33c-.17-.39-.62-.35-.66.05-.02.2.2,1.24.33,1.36ZM12.74,32.56c-.24.23-1.25,1.52-.58,1.68.3.07,1.55-1.72.58-1.68ZM18.87,32.56c-.19.05-.96,1.57-.45,1.7.47.13,1.18-1.66.58-1.71-.04,0-.09,0-.13.01ZM41.07,32.64c-.21-.2-.62-.05-.56.3.01.08.46,1.17.5,1.22.09.11.2.13.34.11.54.01-.19-1.55-.28-1.63ZM47.05,32.64c-.25-.21-.56,0-.49.37.05.26.82,1.72,1.17,1.05.07-.21-.52-1.27-.68-1.42ZM30.01,32.63c-.37.1-.32,1.06-.28,1.38.05.42.56.57.66.21.02-.08.09-.83.09-.95,0-.28-.12-.72-.47-.63ZM11.17,36.34c.17-.14.76-1.16.2-1.18-.26-.15-.77.82-.78.94-.03.32.34.43.58.23ZM48.17,35.17c-.51.17.66,1.94.89,1.04.05-.18-.43-1.02-.61-1.05-.08-.02-.21-.01-.29.01ZM18.13,35.33c-.06-.06-.22-.1-.3-.08-.27.07-1.15,1.96-.25,1.69.21-.06.78-1.39.56-1.61ZM23.92,35.33c-.06.32-.45,1.34-.21,1.55.6.54.82-1.16.75-1.5l-.17-.14-.38.08ZM36.37,36.86c.19-.19-.15-1.56-.33-1.62-.87-.29-.25,1.64-.05,1.7.1.03.31-.01.38-.09ZM41.89,35.25c-.1,0-.22.09-.26.18-.05.16.37,1.33.47,1.45.21.21.61.04.55-.32-.02-.1-.42-1.1-.48-1.17-.06-.08-.18-.15-.28-.14ZM30.01,35.47c-.37.1-.32,1.06-.28,1.38.06.45.59.57.67.14.06-.32.15-1.67-.39-1.52ZM16.59,38.02c-.06.04-.51,1.21-.52,1.31-.03.3.34.43.55.24.05-.05.54-1.17.54-1.25.03-.29-.38-.43-.57-.31ZM23.81,38.01c-.06-.04-.31-.03-.39,0-.2.07-.8,1.9.05,1.62.2-.07.55-1.49.34-1.62ZM36.36,38.02c-.36.11-.05,1.14.06,1.41.12.3.48.32.6.07.08-.16-.15-1.77-.66-1.48ZM42.87,38.02c-.48.14.28,1.57.45,1.62.89.27-.04-1.58-.18-1.62-.08-.03-.19-.02-.27,0ZM30.4,39.91c.06-.2,0-1.12,0-1.42,0-.14-.61-.41-.68.29-.03.27-.04,1.3.34,1.31.08,0,.32-.12.34-.18ZM23.21,40.79c-.51-.5-.99,1.12-.53,1.24.58.16.65-1.12.53-1.24ZM37,41.95c.16.16.56.12.57-.16.02-.29-.27-1.49-.74-.98-.14.15.06,1.03.17,1.14ZM29.93,41.23c-.29.09-.27,1.17-.05,1.3.7.42.79-1.54.05-1.3Z"/>
  <path class="cls-1" d="M.47,28.51c-.23-.05-.39-.34-.41-.56-.07-.63-.07-2.28,0-2.92.02-.19.07-.39.22-.53L25,7.52c8.11-.22,16.29-.03,24.43-.1.85.09.69.95-.07.98l-24.04.03L2.17,24.3l-.09.17c.89-.15,1.82,0,2.73,0,14.77-.09,29.45-.1,44.1,0,.32,0,.63-.14.96.06.27.17.07.83-.21.83H.95c-.07.49.08,1,.08,1.46,0,.24-.16.48-.05.72.13.19.88,0,1.12,0,1.64-.05,3.29.01,4.93,0,13.54-.1,27.08.21,40.59,0,.47,0,1.73-.07,2.08.1.5.24.25.88-.13.88H5.44v13.64c0,.58-.97.5-.97-.07v-13.57H.47Z"/>
  <path class="cls-1" d="M24.7,25.91c.39-.09,1.24-.05,1.29.48.1.96-2.04.84-1.78-.07.04-.13.35-.38.49-.41Z"/>
  <path class="cls-1" d="M17.75,25.91c.37-.07,1.1-.05,1.2.41.22.96-1.73,1-1.77.07.09-.27.29-.43.57-.48Z"/>
  <path class="cls-1" d="M31.73,25.91c1.53-.31,1.68,1.16.36,1.16-1,0-1.17-1-.36-1.16Z"/>
  <path class="cls-1" d="M10.65,25.91c.39-.09,1.24-.05,1.29.48.08.8-1.48.86-1.76.25-.13-.29.18-.67.47-.73Z"/>
  <path class="cls-1" d="M38.76,25.91c.42-.09,1.22-.03,1.22.54,0,.68-1.12.74-1.54.41-.44-.35-.17-.86.32-.96Z"/>
  <path class="cls-1" d="M45.78,25.91c1.44-.29,1.66,1.11.41,1.16-1.02.04-1.31-.97-.41-1.16Z"/>
  <path class="cls-1" d="M30.01,29.79c.59-.16.41.73.4,1.01-.01.32.21.69-.34.78l-.23-.08c-.15-.34-.26-1.59.17-1.71Z"/>
  <path class="cls-1" d="M30.01,32.63c.35-.09.47.35.47.63,0,.12-.07.87-.09.95-.11.37-.61.22-.66-.21-.04-.31-.09-1.28.28-1.38Z"/>
  <path class="cls-1" d="M19.36,31.48c-.07-.07-.09-.21-.08-.3.03-.2.46-1.26.64-1.31.94-.28.04,1.63-.18,1.7-.1.03-.3,0-.38-.08Z"/>
  <path class="cls-1" d="M25.11,29.87c.97-.54.45,1.47.21,1.59-.85.43-.4-1.25-.21-1.59Z"/>
  <path class="cls-1" d="M35.28,34.17c-.13-.12-.34-1.16-.33-1.36.04-.41.49-.44.66-.05.09.2.29,1.18.18,1.33s-.36.23-.51.09Z"/>
  <path class="cls-1" d="M34.95,29.87c.12.13.42,1.39.21,1.56-.62.49-.89-1.23-.75-1.5.09-.19.41-.19.54-.06Z"/>
  <path class="cls-1" d="M40.48,31.48c-.08.07-.27.11-.38.08-.22-.06-.69-1.31-.64-1.51.07-.27.46-.25.62-.05.12.15.55,1.32.4,1.47Z"/>
  <path class="cls-1" d="M25,32.57c.2.22-.1,1.48-.22,1.61-.17.17-.45.07-.54-.13s.16-1.98.77-1.47Z"/>
  <path class="cls-1" d="M30.01,35.47c.54-.15.45,1.2.39,1.52-.08.43-.62.31-.67-.14-.04-.32-.09-1.27.28-1.38Z"/>
  <path class="cls-1" d="M12.74,32.56c.97-.04-.28,1.74-.58,1.68-.67-.15.34-1.44.58-1.68Z"/>
  <path class="cls-1" d="M18.87,32.56s.09-.02.13-.01c.6.05-.1,1.84-.58,1.71-.51-.13.26-1.65.45-1.7Z"/>
  <path class="cls-1" d="M41.07,32.64c.09.08.82,1.64.28,1.63-.14.01-.24,0-.34-.11-.04-.05-.49-1.13-.5-1.22-.05-.35.35-.5.56-.3Z"/>
  <path class="cls-1" d="M47.05,32.64c.17.15.76,1.21.68,1.42-.36.67-1.12-.79-1.17-1.05-.08-.38.24-.59.49-.37Z"/>
  <path class="cls-1" d="M30.4,39.91c-.02.07-.25.19-.34.18-.38,0-.37-1.04-.34-1.31.07-.71.68-.43.68-.29,0,.3.06,1.22,0,1.42Z"/>
  <path class="cls-1" d="M18.13,35.33c.22.22-.34,1.55-.56,1.61-.89.27-.02-1.63.25-1.69.09-.02.24.02.3.08Z"/>
  <path class="cls-1" d="M23.92,35.33l.38-.08.17.14c.07.34-.15,2.03-.75,1.5-.24-.22.14-1.23.21-1.55Z"/>
  <path class="cls-1" d="M36.37,36.86c-.07.07-.28.12-.38.09-.2-.06-.82-2,.05-1.7.18.06.52,1.43.33,1.62Z"/>
  <path class="cls-1" d="M45.15,30.1c.25-.25.48.1.61.29s.59.92.51,1.09c-.17.27-.4.31-.61.05-.06-.08-.56-1-.58-1.07-.03-.12-.03-.26.06-.35Z"/>
  <path class="cls-1" d="M41.89,35.25c.1,0,.22.05.28.14.06.08.46,1.07.48,1.17.06.36-.34.53-.55.32-.11-.11-.53-1.28-.47-1.45.04-.09.17-.17.26-.18Z"/>
  <path class="cls-1" d="M14.29,30.03c.73,0-.34,1.74-.66,1.68-.17-.03-.28-.26-.24-.44.05-.22.65-1.24.9-1.24Z"/>
  <path class="cls-1" d="M16.59,38.02c.19-.12.59.02.57.31,0,.07-.49,1.2-.54,1.25-.21.19-.58.05-.55-.24.01-.11.46-1.28.52-1.31Z"/>
  <path class="cls-1" d="M23.81,38.01c.21.13-.14,1.56-.34,1.62-.85.28-.25-1.55-.05-1.62.08-.03.33-.04.39,0Z"/>
  <path class="cls-1" d="M42.87,38.02c.09-.03.19-.03.27,0,.14.05,1.07,1.89.18,1.62-.17-.05-.93-1.47-.45-1.62Z"/>
  <path class="cls-1" d="M36.36,38.02c.51-.29.74,1.32.66,1.48-.12.24-.48.22-.6-.07-.11-.26-.42-1.3-.06-1.41Z"/>
  <path class="cls-1" d="M48.17,35.17c.08-.03.21-.03.29-.01.18.03.65.87.61,1.05-.23.9-1.4-.87-.89-1.04Z"/>
  <path class="cls-1" d="M29.93,41.23c.74-.24.65,1.72-.05,1.3-.22-.13-.24-1.2.05-1.3Z"/>
  <path class="cls-1" d="M11.17,36.34c-.24.2-.61.08-.58-.23.01-.12.52-1.09.78-.94.56.02-.04,1.04-.2,1.18Z"/>
  <path class="cls-1" d="M37,41.95c-.11-.11-.31-.99-.17-1.14.47-.52.76.69.74.98s-.42.33-.57.16Z"/>
  <path class="cls-1" d="M23.21,40.79c.12.12.06,1.4-.53,1.24-.46-.13.01-1.74.53-1.24Z"/>
  <path class="cls-1" d="M31.08,28.58c.02.13-.16.07-.25.09-.62.09-1.25.12-1.87.2-.25-.09-.65-.04-.79-.29h2.92Z"/>
</svg>