<?xml version="1.0" encoding="UTF-8"?>
<svg id="Layer_1" data-name="Layer 1" xmlns="http://www.w3.org/2000/svg" viewBox="0 0 50 50">
  <defs>
    <style>
      .cls-1 {
        fill: #001c63;
      }
    </style>
  </defs>
  <path class="cls-1" d="M26.09,16.96h8.97l-.58-1.26-.13-.13c-1.31-.02-2.62-.01-3.93-.01-.51,0-1.04,0-1.55,0-.33,0-1.83.06-2-.02-.16-.08-.09-.26-.05-.39h14.33l4.76,6.65c.06.15.07,1.15.01,1.28-.01.02-.09.1-.1.1h-5.78l.27.72c2.17.23,4.44.73,6.35,1.82,4.28,2.42,4.55,6.47.24,9.07s-11.63,2.63-16.19.3c-.15-.07-.85-.55-.91-.55H.14s-.09-.08-.1-.1c-.07-.14-.04-1.1.01-1.28L9.24,15.22c.24-.26.71-.08,1.01-.07,2.36.05,4.8.03,7.16,0,.21,0,.38-.12.61,0,.21.12.09.4.01.4h-8.4c-.19.24-.33.51-.47.78C6.15,21.93,3.46,27.7.48,33.31v.75h29.42c.08,0,1.13.66,1.36.77,4.29,2.05,10.8,2.06,15-.22,4.51-2.45,4.27-6.42-.21-8.71s-12.2-2.22-16.33.78c-1.11.81-2.21,2.13-2.23,3.58,0,.23.17.9.14,1.02-.02.08-.14.18-.23.19l-22.37-.02c-.19-.05-.17-.31-.09-.46l5.9-13.95s.11-.09.13-.09h7.8v-2.98s.06-.12.09-.13l7.12-.02s.1.09.1.1v3.03ZM25.68,14.26h-6.43v2.7h.73c.03-.46.2-.9.36-1.32l-.29-.07-.08-.18c.04-.16.18-.26.34-.24,1.37.1,2.9-.12,4.26,0,.21.02.41.07.33.33-.04.13-.21.12-.3.22-.23.23-.3.96-.41,1.27h1.5v-2.7ZM45.22,21.67c-.06-.19-.21-.37-.32-.53-1.16-1.69-2.43-3.58-3.68-5.18-.13-.17-.24-.42-.48-.4-1.73.06-3.46-.06-5.19,0-.2,0-.39.12-.59,0l2.88,6.12h7.39ZM24.07,15.61h-3.14c-.31.39-.43.92-.52,1.4-.1.53-.15,1.1-.18,1.63-.01.22.04,1.05-.03,1.17-.18.3-.54-.14-.44-.42-.44.07-.81.06-1.25-.02-.69-.12-1.32-.5-2.04-.51-.89-.01-1.66.53-2.54.57-1.01.05-1.72-.46-2.67-.52v1.37l-4.1,10.71h19.96c-.22-.89.01-1.85.44-2.65.74-1.39,2.32-2.47,3.72-3.12.17-.08,1.09-.4,1.12-.49l-1.34-5.46c-1.51.59-2.76-.62-4.26-.35-.4.07-.79.28-1.18.38-.55.13-1.05.16-1.61.08.17.55-.41.77-.47.08-.04-.47.01-1.18.05-1.66.06-.75.19-1.51.47-2.2ZM19.87,17.42h-8.61v1.04c.81-.02,1.44.47,2.26.52,1.1.07,1.85-.57,2.91-.57s2.01.72,3.1.57c.09-.01.25-.04.28-.13l.06-1.42ZM32.78,17.42h-8.66l-.1,1.5c.32.04.63.07.95.05.82-.07,1.52-.56,2.39-.56.8,0,1.33.37,2.04.5.54.1,1.03.09,1.57-.04-.07-.15-.09-.52.13-.52h1.94l-.26-.93ZM35.32,17.42h-2.07l2.03,6.55.12.09c.58-.08,1.18-.17,1.76-.21.33-.02.73.04,1.04,0,.07-.01.09.03.08-.08l-2.96-6.35ZM6.7,31.01l4.08-10.77c.03-.63-.02-1.26.06-1.88l-5.39,12.65h1.24ZM33.17,18.82h-1.74l1.43,5.81,2-.5-1.69-5.31ZM45.48,22.14h-7.41l.8,1.71h.91c-.02-.23-.41-.76-.36-.95.01-.04.1-.14.12-.14h5.94v-.62Z"/>
  <path class="cls-1" d="M2.09,32.87h27.63c-.43-.48-.87-.96-1.09-1.58-.81-2.27,1.26-3.98,3.09-4.84,3.81-1.79,9.59-1.8,13.43-.07,4.45,2,4.64,5.66.16,7.79s-10.95,1.83-14.98-.85l-28.72-.05-.13-.22,4.18-8.5c.24-.21.51-.02.39.28l-3.97,8.03ZM48.02,29.66c-.33-1.14-1.36-1.94-2.35-2.5-3.88-2.16-10.82-2.16-14.62.17-.66.41-1.43.98-1.75,1.7.73-.72,1.5-1.21,2.53-1.39.47-.08.95-.08,1.41-.2.8-.21,1.45-.72,2.31-.8,1.13-.1,1.84.5,2.9.46.96-.03,1.55-.6,2.59-.52.24.02.8.05.75.38s-.54.1-.75.08c-.96-.08-1.75.52-2.75.52s-1.7-.56-2.7-.47c-.86.08-1.55.65-2.38.84-.61.14-1.25.1-1.85.28-.97.28-2.22,1.36-2.37,2.4-.1.69.73,1.64,1.23,2.06,3.72,3.15,13.88,3.32,17.14-.54.67-.79.87-1.32.25-2.23-.5-.72-1.26-1.19-2.09-1.43-.25-.07-.89-.05-.89-.36,0-.38.74-.14.97-.08,1.04.26,1.75.78,2.4,1.61Z"/>
  <path class="cls-1" d="M15.45,25.11c.67-.2,1.4.5,2.11.51s1.17-.47,1.81-.52c1.22-.11,1.76.8,2.99.4.21-.07.39-.21.6-.29.23-.08,1.08-.29,1.04.11-.03.31-.41.22-.61.26-.54.12-1.02.48-1.58.5-.9.03-1.43-.58-2.33-.52-.69.05-1.15.53-1.92.52-.66,0-1.06-.39-1.63-.5-.16-.03-.41,0-.52-.05-.16-.08-.15-.38.04-.43Z"/>
  <path class="cls-1" d="M12.7,23.29c.6-.13,1.29.46,1.9.51.87.07,1.29-.48,2.07-.52,1.02-.06,1.53.66,2.57.5.37-.06.72-.31,1.1-.41.22-.05.82-.22.82.14,0,.3-.48.24-.73.31-.41.11-.79.38-1.22.44-1.03.12-1.59-.56-2.49-.51-.61.03-1.08.45-1.71.51-.83.08-1.09-.25-1.78-.43-.27-.07-.78,0-.73-.36.01-.1.11-.15.2-.17Z"/>
  <path class="cls-1" d="M25.15,21.53c1.05-.1,1.61.65,2.66.48.38-.06.68-.31,1.04-.41.29-.08.85-.23.91.19l-.13.18c-.93.01-1.45.61-2.43.53-.74-.06-1.21-.59-2.01-.5-.29.03-1.03.47-1.03.01,0-.31.73-.45.98-.48Z"/>
  <path class="cls-1" d="M36.99,23.22l-2.22-5.01.04-.36c.14-.02.31-.04.37.11.61,1.6,1.48,3.17,2.09,4.76.12.31.2.63-.27.5Z"/>
  <path class="cls-1" d="M36.66,31.75c1.14-.14,1.61.66,2.71.48.38-.06.68-.31,1.04-.41,1.32-.38,1.89.6,3.06.41.5-.08,1.29-.7,1.8-.46.14.07.16.24.07.36-.07.09-.59.11-.77.16-.38.11-.69.37-1.13.42-1.06.13-1.51-.52-2.38-.52s-1.3.61-2.28.52-1.29-.82-2.46-.39c-.2.07-.46.31-.67.21-.13-.06-.14-.26-.05-.36.12-.13.88-.4,1.08-.43Z"/>
  <path class="cls-1" d="M39.35,29.98c.2.47-.35.39-.67.47-.67.17-.98.52-1.77.45-.62-.06-1.11-.48-1.71-.51-.87-.05-1.4.58-2.33.52-.56-.04-.91-.32-1.42-.45-.23-.06-.71-.02-.73-.3s.41-.25.59-.23c.55.06.99.47,1.56.51.91.07,1.4-.61,2.44-.52.73.06,1.16.57,1.97.52.7-.05,1.35-.74,2.08-.46Z"/>
  <path class="cls-1" d="M42.93,27.18c.85-.08,1.45.93.97,1.64-.35.51-1.05.64-1.54.25-.77-.6-.37-1.8.58-1.9ZM42.87,27.65c-.74.14-.55,1.45.38,1.16.62-.19.37-1.3-.38-1.16Z"/>
  <path class="cls-1" d="M42.15,29.88c.91-.14,1.22,1.11.44,1.43-1.07.43-1.5-1.26-.44-1.43ZM42.07,30.4c-.22.22.02.67.38.46.37-.23-.11-.73-.38-.46Z"/>
  <path class="cls-1" d="M40.11,28.43c.77-.77,1.86.55.96,1.15-.78.52-1.56-.55-.96-1.15ZM40.59,28.68c-.37.07-.27.69.18.55.29-.09.21-.62-.18-.55Z"/>
</svg>