<?xml version="1.0" encoding="UTF-8"?>
<svg id="Capa_1" xmlns="http://www.w3.org/2000/svg" version="1.1" viewBox="0 0 1024 1024">
  <!-- Generator: Adobe Illustrator 29.0.0, SVG Export Plug-In . SVG Version: 2.1.0 Build 186)  -->
  <defs>
    <style>
      .st0 {
        fill: #f4b248;
      }
    </style>
  </defs>
  <path class="st0" d="M736.4,478.1c4.6-.1,9.1-.2,13.7-.2,35.4.7,65.4,36.8,58.8,71.8-2.2,11.7-6.8,22.9-9.9,34.4-5.7,20.7-13.6,45.2-14.2,66.8,21.2-.4,30.2,8.5,28.1,30.4,7.5-.4,35.5-.6,41.9,1.2,7.1,1.9,13.1,6.6,16.8,13,5.7,10,3.4,47.6,2.2,60.5-.3,3.5-6.4,7.1-9.4,8.7,1.1,17.3-3.3,31.7-24,32.5-13.6.5-27.5.2-41.1.2h-82.6s-59,0-59,0c-4.6,0-9.3,0-13.9,0-9-.2-18.1,1.3-23.2-8-1.8-3.1-2.2-6.8-1.1-10.2,2.4-8,10.9-6.6,17.6-8.7,9.6-2.9,17.4-7,26-11.8,10.1-6.9,13.3-9.4,22.2-17.6,18.4-.3,37.9,0,56.4,0h111.2c0-7,1.7-30.8-2.7-36.6-2.4-3.3-15.6-2.4-20.4-2.4h-27.8s-92.8,0-92.8,0c3.7-7.5,5.6-13.5,8.7-20.9,13.2.4,26.5,0,39.7,0,8.4,0,17.4.7,25.7-.2,1.5-.2,3-.6,4.1-1.7,1-1.1,1.4-2.5,1.4-4,0-1.7-.3-3.7-1.8-4.8-3.4-2.6-59.7-1.1-68.3-1,1-26.2-11-60.4-23-83.3-5.3-10.6-11-19.7-13.6-31.5-6.1-28.2,6.9-56.3,32.5-69.7,7.3-3.8,13.5-5.3,21.6-6.9ZM734.4,651c6.1-.6,12.8-.5,18.9-.4l9.6.4v-.7c1.1-21.8,8.8-49.6,14.9-70.4,6.9-23.9,19.6-44,0-66.3-11.7-13.3-23.5-15.1-40-14.5-12.5,2.9-22.1,7.9-29.1,19.1-6.2,10-8.2,22-5.4,33.4,2,8.4,9.4,26.5,12.7,35.5,8.4,22.9,13.3,40.2,18.4,63.8ZM646.3,776.1h179.6c9.2.3,14.3,2.4,16.5-7.9-32.6-.8-67.8,0-100.7,0h-53.5c-7.9,0-18.3-.4-25.9,0-4.9,2-11.7,5-15.9,8.1Z"/>
  <path class="st0" d="M310.3,207.1c.5,0,1,0,1.6,0,27.6-.7,58.9,0,86.8,0h171.7s96.6,0,96.6,0h28.6c11.6,0,22.9-1.5,31.8,7.6,8.6,8.7,6.4,24.1,6.4,35.6v46.3s0,166,0,166c-7.3,2.5-14.6,4.9-21.7,8v-154.1s0-50.2,0-50.2c0-7.4,1-27.8-1.6-35.7-.5-1.5-3.6-2.3-5.4-2.3-12.8-.2-25.6,0-38.4,0h-77.7s-256.4,0-256.4,0c-3.3,0-15.8-.2-17.5,1.1-4,3-3,20.3-3,24.9v33.7c0,0,.5,289.8.5,289.8l.5,85.5v33.6c0,6-2.3,25,5.7,25.6,5,.4,11.7.3,16.8.3h26.2s83.3,0,83.3,0c13.8,0,32.4-.6,45.9.2,5.7,6.8,10.8,15.1,16.9,22.1-5.9-.5-13.5-.3-19.6-.3h-31.4s-97.8,0-97.8,0c-14.4,0-29.4.3-43.7-.2-3.5-.1-6-1.1-9-2.2-5.2-2-12.5-10.4-13.5-15.8-1.4-8.3-.8-21.4-.8-30.1l-.5-52.4-.5-237.9-.3-114.5c0-19.3-.1-38.6,0-57.8,0-14.4,6.1-22.2,19.8-26.5Z"/>
  <path class="st0" d="M510.2,273c6.4.4,15.6,9.2,20.8,13.4l30.9,24.6c-.6-7.1-1.4-14.1,3.3-20,5.2-6.5,16.1-2.3,16.6,5,.7,10,.3,21.6.2,31.6,10,7.3,19.7,15.3,29.6,22.8,8.4,6.3,13.9,10.7,6.7,20.9-10.4,4.8-15-2.4-22.9-8.4.1,22.9.1,45.8,0,68.8,6.3-.1,18.3-1.6,23.3,2.6,5.6,4.8,2.6,16-5.2,16.6-9,.7-18.3.3-27.4.3-18.1,0-36.2,0-54.4.2-27.8-.4-55.7-.4-83.5-.1h-25.1c-4.3,0-8.6.3-12.8,0-8.3-.7-12.6-11-6-16.7,5.2-4.5,17-3,23.7-2.8v-69.1c-1.5,1.2-5.8,4.4-7.2,5.9-8.7,9-21.7,4.1-19.1-8.8.4-2,2.4-4.1,4.2-5.5,15.8-12.8,31.8-25.2,47.7-37.9l33.7-26.6c5-3.9,17.7-14.8,23-16.4ZM448,346.5c0,28.2.3,56.9,0,85.1h41.1c.2-18,.6-38.7.1-56.5h22.9s24.1,0,24.1,0c-1,16-.1,39.7-.2,56.4,12.8,0,26.2-.2,39,0v-85c-21-15.9-42.8-33.6-63.5-50.1-21,16.4-42.4,34-63.5,50Z"/>
  <path class="st0" d="M260.4,162.1c.3,0,.6,0,.9,0,28.5,0,57.2,0,85.7,0h168.7s89.3,0,89.3,0c14.4,0,30.1-.4,44.4.6,3.8.3,10.5,4.4,13.1,7.3,6.8,7.3,7.5,13.9,7.5,23.1-7,.1-14.1,0-21.1,0-.1-.7-.2-1.5-.4-2.2-.8-3.7-2.2-4.7-5.2-6.7-7.1-.4-15.9-.1-23.1-.2h-43.5s-130.2,0-130.2,0h-119.8s-37.6,0-37.6,0c-7.2,0-14.5,0-21.7.1-2.4,0-3.9.9-5.7,2.5-1.1.9-1.7,6.5-1.7,8.1-.1,14,0,28.2,0,42.2v82s0,235.1,0,235.1v75.1c0,13.2-.1,26.5.2,39.7.2,9,11.2,7.3,17.4,7.2-.3,7.5-.1,15.3,0,22.8-8.8-.9-16.6,1.1-25.5-3.5-6-3.1-10.4-8.6-12.3-15.1-2.1-7.3-1.3-47.5-1.3-56.8v-101.7s0-222.1,0-222.1v-71.4c0-13.1-.1-26.1,0-39.2.2-6.7,1.6-13.1,6.2-18.2,4.7-5.3,9.3-6.9,15.8-8.7Z"/>
  <path class="st0" d="M589.2,552.8c1-.1,2-.2,3-.3,24.4-1.9,52.7,6.2,71.4,22.2-4.8,5-10.2,9.3-14.9,14.3-2.9-2-5.9-3.8-9-5.5-19.6-10.7-45.1-13.3-66.6-6.9-21,6.1-38.6,20.4-48.9,39.7-10.7,19.6-12.9,42.8-6.1,64.1,6.6,22.2,21.9,40.7,42.4,51.5,64,33.5,144-27.1,120.5-99.2-.4-1.8-1.5-4-2.3-5.7,5.4-5.4,10.7-11.6,16.1-17.2,6.6,15.7,11,24.7,12.1,42.6,1.5,26.5-8.3,52.5-25.8,72.3-40.9,46.2-106.8,51.1-152.9,9.7-21.2-19.2-33.9-46.2-35.1-74.8-1.3-28,9.3-53.9,28.1-74.4,17.5-19.3,41.9-30.9,68-32.2Z"/>
  <path class="st0" d="M223.8,221.7c.8-.3.6-.2,1.6-.1,1.2,2.2.5,17,1,21-15.6,4-35,2.7-50.1,7.7-3.8,1.3,2.4,31,3,35.2l8.5,52.4,25.1,158.8,7.7,48.2c1.4,9,3.4,19.7,4.1,28.7.5,6.1.3,15.5.3,21.8v37.2s0,31.9,0,31.9c0,2.4.2,11.4,0,13.1h-.5c-5.8-6.8-2.8-4.7-4.7-11.8l-.2-.6c-5.8-31.4-10.9-64.7-16-96.3l-20.4-123.8-19.8-122.5c-3.7-22.6-7.6-45.2-11-67.8-.8-4.4-.2-8.1,1.2-12.3,5.7-16.3,23.7-15.8,38.7-17.5l31.5-3.6Z"/>
  <path class="st0" d="M673.1,582.8c.9.4,12.6,13.4,14.6,15.4-20.5,25.4-41.2,50.7-62,75.8l-17.7,21.8c-3.7,4.6-7.4,9.3-11.6,13.5-3.2,3.2-5,2.8-9.4,2.6-7-5.3-25.3-26.3-31.8-33.4-5.7-5.6-16.6-18-21.6-24.4,33.1-33.5,23.4-25.9,54.8,4.7,6.2-6.3,14.2-12.9,20.8-19,21-19.3,42.4-38.3,64-57Z"/>
  <path class="st0" d="M368.7,478.1c10.5-.4,22.9-.1,33.6-.1h61.6s84.8,0,84.8,0c7.4,0,51.1-.9,55.5.7,2.3.8,4.2,2.6,5.1,4.9,2.5,6.3-.8,10.9-6.7,13-5,.3-13.2,0-18.5,0h-34.3s-107.7,0-107.7,0h-50.7c-7.2,0-15.9.4-23-.2-1.9-.4-4.9-2.5-5.7-4.3-3-6.7.4-11.3,6-14.1Z"/>
  <path class="st0" d="M398.8,522.8c1.7-.4,15.7.2,18.6.2h40.7c0,0,51.1,0,51.1,0,7.9,0,23-.5,30.3.2,1.6.2,3.1.8,4.3,1.7,3.3,2.6,5.6,9.7,2.1,12.7-6.9,5.8-23.9,3.9-32.8,3.8h-97.4s-29.8,0-29.8,0c-5.7,0-15.6,1-20.3-1.8-4.8-2.9-5.7-8.8-2-13,1.8-2,3.8-3,6.5-3.5,9.2-.8,18.6.4,27.9-.3h.8Z"/>
  <path class="st0" d="M369.1,562.6c18.1-.5,37.2,0,55.9,0,16.4.5,34.7-1.2,50.8.7,5.4.6,9,12.5-1.4,16.7-9.2.3-104.1,1-107.7-.6-2.3-1.1-4.4-3.4-5.2-5.9-.8-2.5,0-4.6,1.4-6.8,1.4-2.4,3.5-3.5,6.1-4.1Z"/>
</svg>